<svg xmlns="http://www.w3.org/2000/svg" viewBox="0 0 1024 1024">
  <defs>
    <linearGradient id="starterGradient" x1="0" y1="0" x2="1" y2="1">
      <stop offset="0%" stop-color="#e7ba52"/>
      <stop offset="100%" stop-color="#c67b2e"/>
    </linearGradient>
    <filter id="lidShadow" x="-20%" y="-20%" width="140%" height="140%">
      <feDropShadow dx="0" dy="12" stdDeviation="0" flood-color="#8d8477" flood-opacity="0.7"/>
    </filter>
  </defs>
  <rect width="1024" height="1024" rx="214" fill="#17100a"/>
  <rect x="8" y="8" width="1008" height="1008" rx="206" fill="#2a1d11" stroke="#3a2a1d" stroke-width="16"/>
  <path d="M262 271a32 32 0 0 1 0 64c-23 0-41 26-41 72 0 42 15 71 40 88a32 32 0 0 1-34 54c-45-28-70-79-70-142 0-81 40-136 105-136Z" fill="#c9c0b0"/>
  <path d="M762 271c65 0 105 55 105 136 0 63-25 114-70 142a32 32 0 1 1-34-54c25-17 40-46 40-88 0-46-18-72-41-72a32 32 0 1 1 0-64Z" fill="#c9c0b0"/>
  <g filter="url(#lidShadow)">
    <rect x="256" y="208" width="512" height="120" rx="60" fill="#d2c8b5"/>
  </g>
  <rect x="256" y="208" width="512" height="120" rx="60" fill="none" stroke="#b6ac9c" stroke-width="8"/>
  <circle cx="491" cy="289" r="14" fill="#ebe1cf"/>
  <rect x="281" y="387" width="462" height="27" fill="#a79e91"/>
  <path d="M288 415h448v327c0 94-76 170-170 170H458c-94 0-170-76-170-170Z" fill="#a59c90"/>
  <path d="M304 512c68 0 103 36 164 36 58 0 80-37 140-37 65 0 86 37 136 37 24 0 42-3 56-7v201c0 86-70 156-156 156H460c-86 0-156-70-156-156Z" fill="url(#starterGradient)"/>
  <circle cx="545" cy="367" r="20" fill="#d2cabd"/>
  <circle cx="417" cy="430" r="28" fill="#cec5b8"/>
  <circle cx="627" cy="447" r="22" fill="#cec5b8"/>
  <circle cx="352" cy="480" r="16" fill="#d8d0c4"/>
  <circle cx="384" cy="671" r="29" fill="#e9bd57" opacity="0.24"/>
  <circle cx="593" cy="703" r="34" fill="#ebc25a" opacity="0.24"/>
  <circle cx="492" cy="784" r="22" fill="#ebc25a" opacity="0.24"/>
  <circle cx="444" cy="850" r="18" fill="#ebc25a" opacity="0.24"/>
  <circle cx="659" cy="817" r="23" fill="#ebc25a" opacity="0.24"/>
</svg>
